<svg xmlns="http://www.w3.org/2000/svg" width="910" height="512" viewBox="0 0 910 512">
<g>
<path d="M 711.00 0.00 L 711.00 512.00 L 469.80 512.00 L 470.71 509.25 C472.49,503.85 471.76,503.30 456.35,498.40 L 441.84 493.79 L 438.39 488.39 C438.22,488.13 438.06,487.88 437.91,487.64 C435.66,484.14 434.49,482.31 434.64,480.60 C434.81,478.62 436.74,476.78 440.83,472.66 L 447.94 465.50 L 489.39 365.50 L 489.42 355.28 L 489.44 345.07 L 482.92 332.28 C472.65,312.14 443.90,260.82 440.98,257.40 C438.52,254.53 438.27,253.38 437.66,242.05 C437.30,235.31 437.26,229.39 437.56,228.90 C437.87,228.40 439.85,228.00 441.98,228.00 L 445.84 228.00 L 458.55 203.31 C466.86,187.16 470.95,178.21 470.38,177.42 C469.89,176.75 468.46,174.81 467.18,173.10 L 464.86 170.00 L 474.50 160.09 L 485.49 166.55 C491.91,170.31 497.65,173.00 499.27,173.00 C503.30,173.00 513.99,169.21 517.51,166.54 C519.73,164.86 521.72,161.30 525.01,153.14 C527.48,147.02 530.00,142.01 530.62,142.01 C531.24,142.00 532.27,144.70 532.92,148.00 C533.58,151.33 534.63,154.00 535.30,154.01 C538.56,154.03 564.28,147.44 564.64,146.49 C564.87,145.89 563.54,138.80 561.67,130.73 C558.34,116.34 558.31,116.01 560.08,113.11 C561.07,111.49 562.72,106.18 563.76,101.33 L 565.65 92.50 L 606.57 92.00 L 647.50 91.50 L 648.08 76.00 L 680.00 76.00 L 680.00 68.00 L 648.00 68.00 L 648.00 62.70 C648.00,57.92 646.82,55.00 644.89,55.00 C644.50,55.00 642.90,57.02 641.34,59.50 L 638.50 64.00 L 568.25 64.00 L 498.00 64.00 L 498.00 61.00 C498.00,58.11 498.17,58.00 502.46,58.00 C502.74,58.00 503.00,58.00 503.25,58.01 C504.46,58.02 505.30,58.03 505.96,57.69 C507.57,56.86 508.11,53.97 510.45,44.00 C512.44,35.49 512.42,35.29 509.50,33.75 C507.95,32.94 505.68,29.68 503.52,25.17 C499.05,15.86 491.62,8.35 482.18,3.59 L 475.05 0.00 Z" fill="rgb(40,57,126)"/>
<path d="M 208.61 508.79 L 206.95 512.00 L 199.00 512.00 L 199.00 0.00 L 440.68 0.00 L 435.39 3.99 C429.65,8.33 425.29,14.08 422.67,20.78 C421.29,24.31 421.11,27.11 421.63,36.78 C422.30,49.22 423.10,51.31 427.57,52.43 C430.54,53.17 430.58,53.91 427.90,58.44 L 425.80 62.00 L 417.29 62.00 C409.68,62.00 408.16,62.33 402.92,65.12 C396.37,68.62 386.82,77.82 381.39,85.89 C377.84,91.17 369.70,107.52 362.44,124.00 C356.62,137.20 356.96,136.87 348.71,137.21 L 341.60 137.50 L 331.79 166.41 C331.02,168.68 330.30,170.78 329.63,172.73 C323.95,189.39 322.17,194.59 324.01,197.51 C325.06,199.18 327.29,200.10 330.64,201.99 C333.59,203.66 336.00,205.63 336.00,206.37 C336.00,207.12 334.47,212.34 332.60,217.98 C329.64,226.93 328.56,228.89 324.13,233.37 C319.51,238.05 318.49,240.00 312.63,255.50 L 306.20 272.50 L 300.90 273.27 C297.98,273.70 295.30,274.52 294.94,275.10 C294.58,275.68 294.00,280.05 293.65,284.83 C291.44,314.97 288.89,337.81 286.53,348.51 C286.28,349.62 283.70,352.29 280.79,354.44 C277.88,356.59 272.35,361.54 268.50,365.43 L 261.50 372.50 L 244.00 413.37 C234.38,435.84 225.44,456.77 224.15,459.87 C221.09,467.17 218.97,479.62 220.19,483.12 C220.96,485.33 220.26,487.28 215.69,495.65 C212.71,501.11 209.53,507.02 208.61,508.79 ZM 384.77 512.00 L 255.78 512.00 L 256.33 508.75 C256.64,506.96 257.19,501.45 257.57,496.50 C257.94,491.55 258.93,486.15 259.77,484.50 C261.08,481.92 271.83,467.49 285.83,449.50 C287.97,446.75 294.39,438.42 300.11,431.00 C305.82,423.57 312.44,415.02 314.80,412.00 C317.17,408.97 322.45,402.23 326.54,397.01 C334.53,386.79 333.07,389.78 360.04,328.50 C367.30,312.00 373.71,297.91 374.28,297.20 C374.86,296.48 376.72,296.03 378.41,296.20 C381.67,296.52 382.67,297.79 394.00,316.17 C406.95,337.17 419.09,353.61 423.33,355.91 C424.95,356.78 427.42,358.44 428.81,359.60 L 431.35 361.70 L 424.48 374.10 C407.58,404.63 409.84,398.11 401.99,439.00 C400.89,444.77 399.54,451.08 399.00,453.00 C393.00,474.45 389.54,486.44 388.02,491.12 C387.02,494.21 385.87,500.17 385.48,504.37 L 384.77 512.00 Z" fill="rgb(251,172,26)"/>
<path d="M 0.00 256.00 L 0.00 0.00 L 99.50 0.00 L 199.00 0.00 L 199.00 256.00 L 199.00 512.00 L 99.50 512.00 L 0.00 512.00 L 0.00 256.00 ZM 208.61 508.79 C209.53,507.02 212.71,501.11 215.69,495.65 C220.26,487.28 220.96,485.33 220.19,483.12 C218.97,479.62 221.09,467.17 224.15,459.87 C225.44,456.77 234.38,435.84 244.00,413.37 L 261.50 372.50 L 268.50 365.43 C272.35,361.54 277.88,356.59 280.79,354.44 C283.70,352.29 286.28,349.62 286.53,348.51 C288.89,337.81 291.44,314.97 293.65,284.83 C294.00,280.05 294.58,275.68 294.94,275.10 C295.30,274.52 297.98,273.70 300.90,273.27 L 306.20 272.50 L 312.63 255.50 C318.49,240.00 319.51,238.05 324.13,233.37 C328.56,228.89 329.64,226.93 332.60,217.98 C334.47,212.34 336.00,207.12 336.00,206.37 C336.00,205.63 333.59,203.66 330.64,201.99 C320.73,196.40 320.64,199.24 331.79,166.41 L 341.60 137.50 L 348.71 137.21 C356.96,136.87 356.62,137.20 362.44,124.00 C369.70,107.52 377.84,91.17 381.39,85.89 C386.82,77.82 396.37,68.62 402.92,65.12 C408.16,62.33 409.68,62.00 417.29,62.00 L 425.80 62.00 L 427.90 58.44 C430.58,53.91 430.54,53.17 427.57,52.43 C423.10,51.31 422.30,49.22 421.63,36.78 C421.11,27.11 421.29,24.31 422.67,20.78 C425.29,14.08 429.65,8.33 435.39,3.99 L 440.68 0.00 L 457.87 0.00 L 475.05 0.00 L 482.18 3.59 C491.62,8.35 499.05,15.86 503.52,25.17 C505.68,29.68 507.95,32.94 509.50,33.75 C512.42,35.29 512.44,35.49 510.45,44.00 C506.96,58.88 507.46,58.00 502.46,58.00 C498.17,58.00 498.00,58.11 498.00,61.00 L 498.00 64.00 L 568.25 64.00 L 638.50 64.00 L 641.34 59.50 C642.90,57.02 644.50,55.00 644.89,55.00 C646.82,55.00 648.00,57.92 648.00,62.70 L 648.00 68.00 L 664.00 68.00 L 680.00 68.00 L 680.00 72.00 L 680.00 76.00 L 664.04 76.00 L 648.08 76.00 L 647.79 83.75 L 647.50 91.50 L 606.57 92.00 L 565.65 92.50 L 563.76 101.33 C562.72,106.18 561.07,111.49 560.08,113.11 C558.31,116.01 558.34,116.34 561.67,130.73 C563.54,138.80 564.87,145.89 564.64,146.49 C564.28,147.44 538.56,154.03 535.30,154.01 C534.63,154.00 533.58,151.33 532.92,148.00 C532.27,144.70 531.24,142.00 530.62,142.01 C530.00,142.01 527.48,147.02 525.01,153.14 C521.72,161.30 519.73,164.86 517.51,166.54 C513.99,169.21 503.30,173.00 499.27,173.00 C497.65,173.00 491.91,170.31 485.49,166.55 L 474.50 160.09 L 469.68 165.04 L 464.86 170.00 L 467.18 173.10 C468.46,174.81 469.89,176.75 470.38,177.42 C470.95,178.21 466.86,187.16 458.55,203.31 L 445.84 228.00 L 441.98 228.00 C439.85,228.00 437.87,228.40 437.56,228.90 C437.26,229.39 437.30,235.31 437.66,242.05 C438.27,253.38 438.52,254.53 440.98,257.40 C443.90,260.82 472.65,312.14 482.92,332.28 L 489.44 345.07 L 489.42 355.28 L 489.39 365.50 L 468.67 415.50 L 447.94 465.50 L 440.83 472.66 C432.98,480.58 433.06,480.06 438.39,488.39 L 441.84 493.79 L 456.35 498.40 C471.76,503.30 472.49,503.85 470.71,509.25 L 469.80 512.00 L 427.28 512.00 L 384.77 512.00 L 385.48 504.37 C385.87,500.17 387.02,494.21 388.02,491.12 C389.54,486.44 393.00,474.45 399.00,453.00 C399.54,451.08 400.89,444.77 401.99,439.00 C409.84,398.11 407.58,404.63 424.48,374.10 L 431.35 361.70 L 428.81 359.60 C427.42,358.44 424.95,356.78 423.33,355.91 C419.09,353.61 406.95,337.17 394.00,316.17 C382.67,297.79 381.67,296.52 378.41,296.20 C376.72,296.03 374.86,296.48 374.28,297.20 C373.71,297.91 367.30,312.00 360.04,328.50 C333.07,389.78 334.53,386.79 326.54,397.01 C322.45,402.23 317.17,408.97 314.80,412.00 C312.44,415.02 305.82,423.57 300.11,431.00 C294.39,438.42 287.97,446.75 285.83,449.50 C271.83,467.49 261.08,481.92 259.77,484.50 C258.93,486.15 257.94,491.55 257.57,496.50 C257.19,501.45 256.64,506.96 256.33,508.75 L 255.78 512.00 L 231.36 512.00 L 206.95 512.00 L 208.61 508.79 ZM 711.00 256.00 L 711.00 0.00 L 810.50 0.00 L 910.00 0.00 L 910.00 256.00 L 910.00 512.00 L 810.50 512.00 L 711.00 512.00 L 711.00 256.00 Z" fill="rgb(254,254,254)"/>
</g>
</svg>